<?xml version="1.0" encoding="utf-8"?>
<!-- Generator: Adobe Illustrator 24.3.0, SVG Export Plug-In . SVG Version: 6.00 Build 0)  -->
<svg version="1.1" id="Capa_1" xmlns="http://www.w3.org/2000/svg" xmlns:xlink="http://www.w3.org/1999/xlink" x="0px" y="0px"
	 viewBox="0 0 14.2 14.2" style="enable-background:new 0 0 14.2 14.2;" xml:space="preserve">
<style type="text/css">
	.st0{fill:#21ED73;}
	.st1{fill:#030104;}
</style>
<circle class="st0" cx="7.1" cy="6.8" r="5.2"/>
<g>
	<path class="st1" d="M12.1,5.1c-0.3-0.8-0.7-1.5-1.2-2l-0.7,1.4c0.2,0.3,0.4,0.7,0.6,1.1c0.7,2-0.4,4.1-2.4,4.8
		C6.4,11,4.2,10,3.6,8C2.9,6,4,3.9,5.9,3.2c0,0,0,0,0,0l0,0l0.4,1.2l1.2-2.5L5.1,0.7l0.4,1.2c0,0,0,0,0,0C2.8,2.8,1.3,5.7,2.2,8.4
		c0.9,2.7,3.9,4.2,6.6,3.3C11.5,10.8,13,7.9,12.1,5.1z"/>
</g>
</svg>
